<mxfile host="app.diagrams.net" modified="2021-08-26T09:39:10.136Z" agent="5.0 (Windows NT 10.0; Win64; x64) AppleWebKit/537.36 (KHTML, like Gecko) Chrome/92.0.4515.159 Safari/537.36" etag="N06IJz6aQpVvyjC1ThcU" version="14.9.9" type="github">
  <diagram id="A8xOy3aQSjEXoxTfMnL5" name="Page-1">
    <mxGraphModel dx="1422" dy="762" grid="1" gridSize="10" guides="1" tooltips="1" connect="1" arrows="1" fold="1" page="1" pageScale="1" pageWidth="827" pageHeight="1169" math="0" shadow="0">
      <root>
        <mxCell id="0" />
        <mxCell id="1" parent="0" />
        <mxCell id="MogVMfFzb4t6q5MBauw1-1" value="Pool" style="swimlane;html=1;childLayout=stackLayout;resizeParent=1;resizeParentMax=0;horizontal=0;startSize=20;horizontalStack=0;rotation=0;" parent="1" vertex="1">
          <mxGeometry x="110" y="130" width="550" height="560" as="geometry" />
        </mxCell>
        <mxCell id="MogVMfFzb4t6q5MBauw1-6" value="核心" style="swimlane;html=1;startSize=20;horizontal=0;rotation=0;" parent="MogVMfFzb4t6q5MBauw1-1" vertex="1">
          <mxGeometry x="20" width="530" height="120" as="geometry">
            <mxRectangle x="20" width="490" height="20" as="alternateBounds" />
          </mxGeometry>
        </mxCell>
        <mxCell id="MogVMfFzb4t6q5MBauw1-7" value="" style="edgeStyle=orthogonalEdgeStyle;rounded=0;orthogonalLoop=1;jettySize=auto;html=1;" parent="MogVMfFzb4t6q5MBauw1-6" source="MogVMfFzb4t6q5MBauw1-8" target="MogVMfFzb4t6q5MBauw1-10" edge="1">
          <mxGeometry relative="1" as="geometry" />
        </mxCell>
        <mxCell id="MogVMfFzb4t6q5MBauw1-8" value="start" style="ellipse;whiteSpace=wrap;html=1;rotation=0;" parent="MogVMfFzb4t6q5MBauw1-6" vertex="1">
          <mxGeometry x="40" y="39" width="40" height="40" as="geometry" />
        </mxCell>
        <mxCell id="MogVMfFzb4t6q5MBauw1-10" value="推送回访任务" style="rounded=0;whiteSpace=wrap;html=1;fontFamily=Helvetica;fontSize=12;fontColor=#000000;align=center;rotation=0;" parent="MogVMfFzb4t6q5MBauw1-6" vertex="1">
          <mxGeometry x="110" y="29" width="80" height="60" as="geometry" />
        </mxCell>
        <mxCell id="MogVMfFzb4t6q5MBauw1-13" value="end" style="ellipse;whiteSpace=wrap;html=1;rotation=0;" parent="MogVMfFzb4t6q5MBauw1-6" vertex="1">
          <mxGeometry x="380" y="39" width="40" height="40" as="geometry" />
        </mxCell>
        <mxCell id="7tYZc-FfLZJL2mV3XovX-6" value="CC" style="swimlane;html=1;startSize=20;horizontal=0;rotation=0;" vertex="1" parent="MogVMfFzb4t6q5MBauw1-1">
          <mxGeometry x="20" y="120" width="530" height="260" as="geometry" />
        </mxCell>
        <mxCell id="7tYZc-FfLZJL2mV3XovX-8" value="存储回访记录" style="rounded=0;whiteSpace=wrap;html=1;fontFamily=Helvetica;fontSize=12;align=center;fillColor=#dae8fc;strokeColor=#6c8ebf;rotation=0;" vertex="1" parent="7tYZc-FfLZJL2mV3XovX-6">
          <mxGeometry x="110" y="60" width="80" height="60" as="geometry" />
        </mxCell>
        <mxCell id="7tYZc-FfLZJL2mV3XovX-19" value="智能回访结果" style="rounded=0;whiteSpace=wrap;html=1;strokeColor=#6c8ebf;fillColor=#dae8fc;" vertex="1" parent="7tYZc-FfLZJL2mV3XovX-6">
          <mxGeometry x="250" y="100" width="120" height="60" as="geometry" />
        </mxCell>
        <mxCell id="MogVMfFzb4t6q5MBauw1-14" value="智能外呼" style="swimlane;html=1;startSize=20;horizontal=0;rotation=0;" parent="MogVMfFzb4t6q5MBauw1-1" vertex="1">
          <mxGeometry x="20" y="380" width="530" height="180" as="geometry" />
        </mxCell>
        <mxCell id="7tYZc-FfLZJL2mV3XovX-17" value="" style="edgeStyle=orthogonalEdgeStyle;rounded=0;orthogonalLoop=1;jettySize=auto;html=1;" edge="1" parent="MogVMfFzb4t6q5MBauw1-14" source="7tYZc-FfLZJL2mV3XovX-11" target="7tYZc-FfLZJL2mV3XovX-16">
          <mxGeometry relative="1" as="geometry" />
        </mxCell>
        <mxCell id="7tYZc-FfLZJL2mV3XovX-11" value="智能外呼" style="rounded=0;whiteSpace=wrap;html=1;fontFamily=Helvetica;fontSize=12;align=center;fillColor=#dae8fc;strokeColor=#6c8ebf;rotation=0;" vertex="1" parent="MogVMfFzb4t6q5MBauw1-14">
          <mxGeometry x="190" y="60" width="80" height="60" as="geometry" />
        </mxCell>
        <mxCell id="7tYZc-FfLZJL2mV3XovX-16" value="" style="rhombus;whiteSpace=wrap;html=1;rounded=0;strokeColor=#6c8ebf;fillColor=#dae8fc;" vertex="1" parent="MogVMfFzb4t6q5MBauw1-14">
          <mxGeometry x="360" y="50" width="80" height="80" as="geometry" />
        </mxCell>
        <mxCell id="7tYZc-FfLZJL2mV3XovX-10" style="edgeStyle=orthogonalEdgeStyle;rounded=0;orthogonalLoop=1;jettySize=auto;html=1;exitX=0.5;exitY=1;exitDx=0;exitDy=0;" edge="1" parent="MogVMfFzb4t6q5MBauw1-1" source="MogVMfFzb4t6q5MBauw1-10" target="7tYZc-FfLZJL2mV3XovX-8">
          <mxGeometry relative="1" as="geometry" />
        </mxCell>
        <mxCell id="7tYZc-FfLZJL2mV3XovX-12" value="" style="edgeStyle=orthogonalEdgeStyle;rounded=0;orthogonalLoop=1;jettySize=auto;html=1;" edge="1" parent="MogVMfFzb4t6q5MBauw1-1" source="7tYZc-FfLZJL2mV3XovX-8" target="7tYZc-FfLZJL2mV3XovX-11">
          <mxGeometry relative="1" as="geometry" />
        </mxCell>
        <mxCell id="7tYZc-FfLZJL2mV3XovX-20" value="" style="edgeStyle=orthogonalEdgeStyle;rounded=0;orthogonalLoop=1;jettySize=auto;html=1;" edge="1" parent="MogVMfFzb4t6q5MBauw1-1" source="7tYZc-FfLZJL2mV3XovX-16" target="7tYZc-FfLZJL2mV3XovX-19">
          <mxGeometry relative="1" as="geometry" />
        </mxCell>
        <mxCell id="7tYZc-FfLZJL2mV3XovX-21" style="edgeStyle=orthogonalEdgeStyle;rounded=0;orthogonalLoop=1;jettySize=auto;html=1;" edge="1" parent="MogVMfFzb4t6q5MBauw1-1" source="7tYZc-FfLZJL2mV3XovX-19" target="MogVMfFzb4t6q5MBauw1-13">
          <mxGeometry relative="1" as="geometry" />
        </mxCell>
        <mxCell id="7tYZc-FfLZJL2mV3XovX-22" value="回访结果" style="edgeLabel;html=1;align=center;verticalAlign=middle;resizable=0;points=[];" vertex="1" connectable="0" parent="7tYZc-FfLZJL2mV3XovX-21">
          <mxGeometry x="-0.0249" y="-3" relative="1" as="geometry">
            <mxPoint as="offset" />
          </mxGeometry>
        </mxCell>
      </root>
    </mxGraphModel>
  </diagram>
</mxfile>
